# Wavefront OBJ file automatically generated by Tiled2Unity

# Vertices (Count = 95)
v -160 -40 0
v -200 -40 0
v -200 0 0
v -160 0 0
v -240 -40 0
v -240 0 0
v -280 -40 0
v -280 0 0
v -320 -40 0
v -320 0 0
v -360 -40 0
v -360 0 0
v -160 -80 0
v -200 -80 0
v -320 -80 0
v -360 -80 0
v -160 -120 0
v -200 -120 0
v -320 -120 0
v -360 -120 0
v -160 -160 0
v -200 -160 0
v -240 -160 0
v -240 -120 0
v -320 -160 0
v -360 -160 0
v -160 -200 0
v -200 -200 0
v -320 -200 0
v -360 -200 0
v -160 -240 0
v -200 -240 0
v -240 -240 0
v -240 -200 0
v -320 -240 0
v -360 -240 0
v -120 -280 0
v -160 -280 0
v -120 -240 0
v -200 -280 0
v -240 -280 0
v -280 -280 0
v -320 -280 0
v -280 -240 0
v -360 -280 0
v -120 -320 0
v -160 -320 0
v -200 -320 0
v -240 -320 0
v -280 -320 0
v -320 -320 0
v 0 -360 0
v -40 -360 0
v -40 -320 0
v 0 -320 0
v -80 -360 0
v -80 -320 0
v -120 -360 0
v -160 -360 0
v -200 -360 0
v -240 -360 0
v -280 -360 0
v -320 -360 0
v 0 -400 0
v -40 -400 0
v -280 -400 0
v -320 -400 0
v 0 -440 0
v -40 -440 0
v -80 -440 0
v -80 -400 0
v -120 -440 0
v -120 -400 0
v -160 -440 0
v -200 -440 0
v -200 -400 0
v -160 -400 0
v -240 -440 0
v -240 -400 0
v -280 -440 0
v -320 -440 0
v -80 -480 0
v -120 -480 0
v -160 -480 0
v -200 -480 0
v -240 -480 0
v -280 -480 0
v -320 -480 0
v -80 -520 0
v -120 -520 0
v -160 -520 0
v -200 -520 0
v -240 -520 0
v -280 -520 0
v -320 -520 0

# Texture Coorindates (Count = 4)
vt 0.0001220703 0.0001220703
vt 0.9998779 0.0001220703
vt 0.9998779 0.9998779
vt 0.0001220703 0.9998779

# Normal
vn 0 0 -1

# Groups (Count = 1)
g mesh_[00]_[00]
f  1/1/1  2/2/1  3/3/1  4/4/1 
f  2/1/1  5/2/1  6/3/1  3/4/1 
f  5/1/1  7/2/1  8/3/1  6/4/1 
f  7/1/1  9/2/1  10/3/1  8/4/1 
f  9/1/1  11/2/1  12/3/1  10/4/1 
f  13/1/1  14/2/1  2/3/1  1/4/1 
f  15/1/1  16/2/1  11/3/1  9/4/1 
f  17/1/1  18/2/1  14/3/1  13/4/1 
f  19/1/1  20/2/1  16/3/1  15/4/1 
f  21/1/1  22/2/1  18/3/1  17/4/1 
f  22/1/1  23/2/1  24/3/1  18/4/1 
f  25/1/1  26/2/1  20/3/1  19/4/1 
f  27/1/1  28/2/1  22/3/1  21/4/1 
f  29/1/1  30/2/1  26/3/1  25/4/1 
f  31/1/1  32/2/1  28/3/1  27/4/1 
f  32/1/1  33/2/1  34/3/1  28/4/1 
f  35/1/1  36/2/1  30/3/1  29/4/1 
f  37/1/1  38/2/1  31/3/1  39/4/1 
f  38/1/1  40/2/1  32/3/1  31/4/1 
f  40/1/1  41/2/1  33/3/1  32/4/1 
f  42/1/1  43/2/1  35/3/1  44/4/1 
f  43/1/1  45/2/1  36/3/1  35/4/1 
f  46/1/1  47/2/1  38/3/1  37/4/1 
f  48/1/1  49/2/1  41/3/1  40/4/1 
f  50/1/1  51/2/1  43/3/1  42/4/1 
f  52/1/1  53/2/1  54/3/1  55/4/1 
f  53/1/1  56/2/1  57/3/1  54/4/1 
f  56/1/1  58/2/1  46/3/1  57/4/1 
f  58/1/1  59/2/1  47/3/1  46/4/1 
f  60/1/1  61/2/1  49/3/1  48/4/1 
f  62/1/1  63/2/1  51/3/1  50/4/1 
f  64/1/1  65/2/1  53/3/1  52/4/1 
f  66/1/1  67/2/1  63/3/1  62/4/1 
f  68/1/1  69/2/1  65/3/1  64/4/1 
f  69/1/1  70/2/1  71/3/1  65/4/1 
f  70/1/1  72/2/1  73/3/1  71/4/1 
f  74/1/1  75/2/1  76/3/1  77/4/1 
f  75/1/1  78/2/1  79/3/1  76/4/1 
f  80/1/1  81/2/1  67/3/1  66/4/1 
f  82/1/1  83/2/1  72/3/1  70/4/1 
f  84/1/1  85/2/1  75/3/1  74/4/1 
f  85/1/1  86/2/1  78/3/1  75/4/1 
f  87/1/1  88/2/1  81/3/1  80/4/1 
f  89/1/1  90/2/1  83/3/1  82/4/1 
f  90/1/1  91/2/1  84/3/1  83/4/1 
f  91/1/1  92/2/1  85/3/1  84/4/1 
f  92/1/1  93/2/1  86/3/1  85/4/1 
f  93/1/1  94/2/1  87/3/1  86/4/1 
f  94/1/1  95/2/1  88/3/1  87/4/1 
