# Wavefront OBJ file automatically generated by Tiled2Unity

# Vertices (Count = 207)
v 0 -40 0
v -40 -40 0
v -40 0 0
v 0 0 0
v -80 -40 0
v -80 0 0
v -120 -40 0
v -120 0 0
v -160 -40 0
v -160 0 0
v -200 -40 0
v -200 0 0
v -240 -40 0
v -240 0 0
v -280 -40 0
v -280 0 0
v -320 -40 0
v -320 0 0
v -360 -40 0
v -360 0 0
v -400 -40 0
v -400 0 0
v -440 -40 0
v -440 0 0
v -480 -40 0
v -480 0 0
v -520 -40 0
v -520 0 0
v -560 -40 0
v -560 0 0
v 0 -80 0
v -40 -80 0
v -80 -80 0
v -120 -80 0
v -160 -80 0
v -200 -80 0
v -240 -80 0
v -280 -80 0
v -320 -80 0
v -360 -80 0
v -400 -80 0
v -440 -80 0
v -480 -80 0
v -520 -80 0
v -560 -80 0
v 0 -120 0
v -40 -120 0
v -80 -120 0
v -520 -120 0
v -560 -120 0
v 0 -160 0
v -40 -160 0
v -80 -160 0
v -120 -160 0
v -120 -120 0
v -160 -160 0
v -160 -120 0
v -200 -160 0
v -240 -160 0
v -240 -120 0
v -200 -120 0
v -280 -160 0
v -280 -120 0
v -320 -160 0
v -320 -120 0
v -360 -160 0
v -360 -120 0
v -400 -160 0
v -400 -120 0
v -440 -160 0
v -440 -120 0
v -480 -160 0
v -520 -160 0
v -480 -120 0
v -560 -160 0
v 0 -200 0
v -40 -200 0
v -80 -200 0
v -120 -200 0
v -160 -200 0
v -400 -200 0
v -440 -200 0
v -480 -200 0
v -520 -200 0
v -560 -200 0
v 0 -240 0
v -40 -240 0
v -80 -240 0
v -120 -240 0
v -160 -240 0
v -200 -240 0
v -240 -240 0
v -240 -200 0
v -200 -200 0
v -280 -240 0
v -280 -200 0
v -320 -240 0
v -320 -200 0
v -360 -240 0
v -360 -200 0
v -400 -240 0
v -440 -240 0
v -480 -240 0
v -520 -240 0
v -560 -240 0
v 0 -280 0
v -40 -280 0
v -80 -280 0
v -120 -280 0
v -320 -280 0
v -360 -280 0
v -400 -280 0
v -440 -280 0
v -480 -280 0
v -520 -280 0
v -560 -280 0
v 0 -320 0
v -40 -320 0
v -80 -320 0
v -200 -320 0
v -240 -320 0
v -240 -280 0
v -200 -280 0
v -280 -320 0
v -320 -320 0
v -280 -280 0
v -360 -320 0
v -400 -320 0
v -440 -320 0
v -480 -320 0
v -520 -320 0
v -560 -320 0
v 0 -360 0
v -40 -360 0
v -480 -360 0
v -520 -360 0
v -560 -360 0
v 0 -400 0
v -40 -400 0
v -80 -400 0
v -80 -360 0
v -120 -400 0
v -120 -360 0
v -160 -400 0
v -160 -360 0
v -200 -400 0
v -240 -400 0
v -240 -360 0
v -200 -360 0
v -280 -400 0
v -320 -400 0
v -320 -360 0
v -280 -360 0
v -360 -400 0
v -360 -360 0
v -400 -400 0
v -400 -360 0
v -440 -400 0
v -440 -360 0
v -480 -400 0
v -520 -400 0
v -560 -400 0
v 0 -440 0
v -40 -440 0
v -80 -440 0
v -120 -440 0
v -160 -440 0
v -480 -440 0
v -520 -440 0
v -560 -440 0
v 0 -480 0
v -40 -480 0
v -80 -480 0
v -120 -480 0
v -160 -480 0
v -200 -480 0
v -200 -440 0
v -240 -480 0
v -240 -440 0
v -280 -480 0
v -280 -440 0
v -320 -480 0
v -320 -440 0
v -360 -480 0
v -360 -440 0
v -400 -480 0
v -400 -440 0
v -440 -480 0
v -440 -440 0
v -480 -480 0
v -520 -480 0
v -560 -480 0
v 0 -520 0
v -40 -520 0
v -80 -520 0
v -120 -520 0
v -160 -520 0
v -200 -520 0
v -240 -520 0
v -280 -520 0
v -320 -520 0
v -360 -520 0
v -400 -520 0
v -440 -520 0
v -480 -520 0
v -520 -520 0
v -560 -520 0

# Texture Coorindates (Count = 4)
vt 0.0001220703 0.0001220703
vt 0.9998779 0.0001220703
vt 0.9998779 0.9998779
vt 0.0001220703 0.9998779

# Normal
vn 0 0 -1

# Groups (Count = 1)
g mesh_[00]_[00]
f  1/1/1  2/2/1  3/3/1  4/4/1 
f  2/1/1  5/2/1  6/3/1  3/4/1 
f  5/1/1  7/2/1  8/3/1  6/4/1 
f  7/1/1  9/2/1  10/3/1  8/4/1 
f  9/1/1  11/2/1  12/3/1  10/4/1 
f  11/1/1  13/2/1  14/3/1  12/4/1 
f  13/1/1  15/2/1  16/3/1  14/4/1 
f  15/1/1  17/2/1  18/3/1  16/4/1 
f  17/1/1  19/2/1  20/3/1  18/4/1 
f  19/1/1  21/2/1  22/3/1  20/4/1 
f  21/1/1  23/2/1  24/3/1  22/4/1 
f  23/1/1  25/2/1  26/3/1  24/4/1 
f  25/1/1  27/2/1  28/3/1  26/4/1 
f  27/1/1  29/2/1  30/3/1  28/4/1 
f  31/1/1  32/2/1  2/3/1  1/4/1 
f  32/1/1  33/2/1  5/3/1  2/4/1 
f  33/1/1  34/2/1  7/3/1  5/4/1 
f  34/1/1  35/2/1  9/3/1  7/4/1 
f  36/1/1  37/2/1  13/3/1  11/4/1 
f  37/1/1  38/2/1  15/3/1  13/4/1 
f  38/1/1  39/2/1  17/3/1  15/4/1 
f  39/1/1  40/2/1  19/3/1  17/4/1 
f  40/1/1  41/2/1  21/3/1  19/4/1 
f  41/1/1  42/2/1  23/3/1  21/4/1 
f  42/1/1  43/2/1  25/3/1  23/4/1 
f  43/1/1  44/2/1  27/3/1  25/4/1 
f  44/1/1  45/2/1  29/3/1  27/4/1 
f  46/1/1  47/2/1  32/3/1  31/4/1 
f  47/1/1  48/2/1  33/3/1  32/4/1 
f  49/1/1  50/2/1  45/3/1  44/4/1 
f  51/1/1  52/2/1  47/3/1  46/4/1 
f  52/1/1  53/2/1  48/3/1  47/4/1 
f  53/1/1  54/2/1  55/3/1  48/4/1 
f  54/1/1  56/2/1  57/3/1  55/4/1 
f  58/1/1  59/2/1  60/3/1  61/4/1 
f  59/1/1  62/2/1  63/3/1  60/4/1 
f  62/1/1  64/2/1  65/3/1  63/4/1 
f  64/1/1  66/2/1  67/3/1  65/4/1 
f  66/1/1  68/2/1  69/3/1  67/4/1 
f  68/1/1  70/2/1  71/3/1  69/4/1 
f  72/1/1  73/2/1  49/3/1  74/4/1 
f  73/1/1  75/2/1  50/3/1  49/4/1 
f  76/1/1  77/2/1  52/3/1  51/4/1 
f  77/1/1  78/2/1  53/3/1  52/4/1 
f  78/1/1  79/2/1  54/3/1  53/4/1 
f  79/1/1  80/2/1  56/3/1  54/4/1 
f  81/1/1  82/2/1  70/3/1  68/4/1 
f  83/1/1  84/2/1  73/3/1  72/4/1 
f  84/1/1  85/2/1  75/3/1  73/4/1 
f  86/1/1  87/2/1  77/3/1  76/4/1 
f  87/1/1  88/2/1  78/3/1  77/4/1 
f  88/1/1  89/2/1  79/3/1  78/4/1 
f  89/1/1  90/2/1  80/3/1  79/4/1 
f  91/1/1  92/2/1  93/3/1  94/4/1 
f  92/1/1  95/2/1  96/3/1  93/4/1 
f  95/1/1  97/2/1  98/3/1  96/4/1 
f  97/1/1  99/2/1  100/3/1  98/4/1 
f  101/1/1  102/2/1  82/3/1  81/4/1 
f  103/1/1  104/2/1  84/3/1  83/4/1 
f  104/1/1  105/2/1  85/3/1  84/4/1 
f  106/1/1  107/2/1  87/3/1  86/4/1 
f  107/1/1  108/2/1  88/3/1  87/4/1 
f  108/1/1  109/2/1  89/3/1  88/4/1 
f  110/1/1  111/2/1  99/3/1  97/4/1 
f  112/1/1  113/2/1  102/3/1  101/4/1 
f  114/1/1  115/2/1  104/3/1  103/4/1 
f  115/1/1  116/2/1  105/3/1  104/4/1 
f  117/1/1  118/2/1  107/3/1  106/4/1 
f  118/1/1  119/2/1  108/3/1  107/4/1 
f  120/1/1  121/2/1  122/3/1  123/4/1 
f  124/1/1  125/2/1  110/3/1  126/4/1 
f  125/1/1  127/2/1  111/3/1  110/4/1 
f  128/1/1  129/2/1  113/3/1  112/4/1 
f  130/1/1  131/2/1  115/3/1  114/4/1 
f  131/1/1  132/2/1  116/3/1  115/4/1 
f  133/1/1  134/2/1  118/3/1  117/4/1 
f  135/1/1  136/2/1  131/3/1  130/4/1 
f  136/1/1  137/2/1  132/3/1  131/4/1 
f  138/1/1  139/2/1  134/3/1  133/4/1 
f  139/1/1  140/2/1  141/3/1  134/4/1 
f  140/1/1  142/2/1  143/3/1  141/4/1 
f  142/1/1  144/2/1  145/3/1  143/4/1 
f  146/1/1  147/2/1  148/3/1  149/4/1 
f  150/1/1  151/2/1  152/3/1  153/4/1 
f  151/1/1  154/2/1  155/3/1  152/4/1 
f  154/1/1  156/2/1  157/3/1  155/4/1 
f  156/1/1  158/2/1  159/3/1  157/4/1 
f  160/1/1  161/2/1  136/3/1  135/4/1 
f  161/1/1  162/2/1  137/3/1  136/4/1 
f  163/1/1  164/2/1  139/3/1  138/4/1 
f  164/1/1  165/2/1  140/3/1  139/4/1 
f  165/1/1  166/2/1  142/3/1  140/4/1 
f  166/1/1  167/2/1  144/3/1  142/4/1 
f  168/1/1  169/2/1  161/3/1  160/4/1 
f  169/1/1  170/2/1  162/3/1  161/4/1 
f  171/1/1  172/2/1  164/3/1  163/4/1 
f  172/1/1  173/2/1  165/3/1  164/4/1 
f  173/1/1  174/2/1  166/3/1  165/4/1 
f  174/1/1  175/2/1  167/3/1  166/4/1 
f  175/1/1  176/2/1  177/3/1  167/4/1 
f  176/1/1  178/2/1  179/3/1  177/4/1 
f  178/1/1  180/2/1  181/3/1  179/4/1 
f  180/1/1  182/2/1  183/3/1  181/4/1 
f  182/1/1  184/2/1  185/3/1  183/4/1 
f  184/1/1  186/2/1  187/3/1  185/4/1 
f  186/1/1  188/2/1  189/3/1  187/4/1 
f  190/1/1  191/2/1  169/3/1  168/4/1 
f  191/1/1  192/2/1  170/3/1  169/4/1 
f  193/1/1  194/2/1  172/3/1  171/4/1 
f  194/1/1  195/2/1  173/3/1  172/4/1 
f  195/1/1  196/2/1  174/3/1  173/4/1 
f  196/1/1  197/2/1  175/3/1  174/4/1 
f  197/1/1  198/2/1  176/3/1  175/4/1 
f  198/1/1  199/2/1  178/3/1  176/4/1 
f  199/1/1  200/2/1  180/3/1  178/4/1 
f  200/1/1  201/2/1  182/3/1  180/4/1 
f  201/1/1  202/2/1  184/3/1  182/4/1 
f  202/1/1  203/2/1  186/3/1  184/4/1 
f  203/1/1  204/2/1  188/3/1  186/4/1 
f  204/1/1  205/2/1  190/3/1  188/4/1 
f  205/1/1  206/2/1  191/3/1  190/4/1 
f  206/1/1  207/2/1  192/3/1  191/4/1 
