# Wavefront OBJ file automatically generated by Tiled2Unity

# Vertices (Count = 36)
v -80 -120 0
v -120 -120 0
v -120 -80 0
v -80 -80 0
v -80 -160 0
v -120 -160 0
v -40 -200 0
v -80 -200 0
v -40 -160 0
v -120 -200 0
v -160 -200 0
v -160 -160 0
v -40 -240 0
v -80 -240 0
v -120 -240 0
v -160 -240 0
v -40 -280 0
v -80 -280 0
v -120 -280 0
v -160 -280 0
v -40 -320 0
v -80 -320 0
v -120 -320 0
v -160 -320 0
v -40 -360 0
v -80 -360 0
v -120 -360 0
v -160 -360 0
v -40 -400 0
v -80 -400 0
v -120 -400 0
v -160 -400 0
v -40 -440 0
v -80 -440 0
v -120 -440 0
v -160 -440 0

# Texture Coorindates (Count = 4)
vt 0.0001220703 0.0001220703
vt 0.9998779 0.0001220703
vt 0.9998779 0.9998779
vt 0.0001220703 0.9998779

# Normal
vn 0 0 -1

# Groups (Count = 1)
g mesh_[00]_[01]
f  1/1/1  2/2/1  3/3/1  4/4/1 
f  5/1/1  6/2/1  2/3/1  1/4/1 
f  7/1/1  8/2/1  5/3/1  9/4/1 
f  8/1/1  10/2/1  6/3/1  5/4/1 
f  10/1/1  11/2/1  12/3/1  6/4/1 
f  13/1/1  14/2/1  8/3/1  7/4/1 
f  14/1/1  15/2/1  10/3/1  8/4/1 
f  15/1/1  16/2/1  11/3/1  10/4/1 
f  17/1/1  18/2/1  14/3/1  13/4/1 
f  18/1/1  19/2/1  15/3/1  14/4/1 
f  19/1/1  20/2/1  16/3/1  15/4/1 
f  21/1/1  22/2/1  18/3/1  17/4/1 
f  22/1/1  23/2/1  19/3/1  18/4/1 
f  23/1/1  24/2/1  20/3/1  19/4/1 
f  25/1/1  26/2/1  22/3/1  21/4/1 
f  26/1/1  27/2/1  23/3/1  22/4/1 
f  27/1/1  28/2/1  24/3/1  23/4/1 
f  29/1/1  30/2/1  26/3/1  25/4/1 
f  30/1/1  31/2/1  27/3/1  26/4/1 
f  31/1/1  32/2/1  28/3/1  27/4/1 
f  33/1/1  34/2/1  30/3/1  29/4/1 
f  34/1/1  35/2/1  31/3/1  30/4/1 
f  35/1/1  36/2/1  32/3/1  31/4/1 
