# Wavefront OBJ file automatically generated by Tiled2Unity

# Vertices (Count = 93)
v 0 -40 0
v -40 -40 0
v -40 0 0
v 0 0 0
v -80 -40 0
v -80 0 0
v -120 -40 0
v -120 0 0
v -160 -40 0
v -160 0 0
v -200 -40 0
v -200 0 0
v -240 -40 0
v -240 0 0
v -280 -40 0
v -280 0 0
v -320 -40 0
v -320 0 0
v -360 -40 0
v -360 0 0
v -400 -40 0
v -400 0 0
v -440 -40 0
v -440 0 0
v -480 -40 0
v -480 0 0
v 0 -80 0
v -40 -80 0
v -80 -80 0
v -120 -80 0
v -160 -80 0
v -200 -80 0
v -240 -80 0
v -280 -80 0
v -320 -80 0
v -440 -80 0
v -480 -80 0
v 0 -120 0
v -40 -120 0
v -440 -120 0
v -480 -120 0
v 0 -160 0
v -40 -160 0
v -80 -160 0
v -120 -160 0
v -120 -120 0
v -80 -120 0
v -160 -160 0
v -160 -120 0
v -200 -160 0
v -200 -120 0
v -240 -160 0
v -240 -120 0
v -280 -160 0
v -280 -120 0
v -320 -160 0
v -320 -120 0
v -360 -160 0
v -360 -120 0
v -400 -160 0
v -400 -120 0
v -440 -160 0
v -480 -160 0
v 0 -200 0
v -40 -200 0
v -280 -200 0
v -320 -200 0
v 0 -240 0
v -40 -240 0
v -80 -240 0
v -120 -240 0
v -120 -200 0
v -80 -200 0
v -160 -240 0
v -160 -200 0
v -200 -240 0
v -200 -200 0
v -240 -240 0
v -240 -200 0
v -280 -240 0
v -320 -240 0
v 0 -280 0
v -40 -280 0
v -80 -280 0
v -120 -280 0
v 0 -320 0
v -40 -320 0
v -80 -320 0
v -120 -320 0
v 0 -360 0
v -40 -360 0
v -80 -360 0
v -120 -360 0

# Texture Coorindates (Count = 4)
vt 0.0001220703 0.0001220703
vt 0.9998779 0.0001220703
vt 0.9998779 0.9998779
vt 0.0001220703 0.9998779

# Normal
vn 0 0 -1

# Groups (Count = 1)
g mesh_[00]_[03]
f  1/1/1  2/2/1  3/3/1  4/4/1 
f  2/1/1  5/2/1  6/3/1  3/4/1 
f  5/1/1  7/2/1  8/3/1  6/4/1 
f  7/1/1  9/2/1  10/3/1  8/4/1 
f  9/1/1  11/2/1  12/3/1  10/4/1 
f  11/1/1  13/2/1  14/3/1  12/4/1 
f  13/1/1  15/2/1  16/3/1  14/4/1 
f  15/1/1  17/2/1  18/3/1  16/4/1 
f  17/1/1  19/2/1  20/3/1  18/4/1 
f  19/1/1  21/2/1  22/3/1  20/4/1 
f  21/1/1  23/2/1  24/3/1  22/4/1 
f  23/1/1  25/2/1  26/3/1  24/4/1 
f  27/1/1  28/2/1  2/3/1  1/4/1 
f  28/1/1  29/2/1  5/3/1  2/4/1 
f  30/1/1  31/2/1  9/3/1  7/4/1 
f  32/1/1  33/2/1  13/3/1  11/4/1 
f  34/1/1  35/2/1  17/3/1  15/4/1 
f  36/1/1  37/2/1  25/3/1  23/4/1 
f  38/1/1  39/2/1  28/3/1  27/4/1 
f  40/1/1  41/2/1  37/3/1  36/4/1 
f  42/1/1  43/2/1  39/3/1  38/4/1 
f  44/1/1  45/2/1  46/3/1  47/4/1 
f  45/1/1  48/2/1  49/3/1  46/4/1 
f  48/1/1  50/2/1  51/3/1  49/4/1 
f  50/1/1  52/2/1  53/3/1  51/4/1 
f  52/1/1  54/2/1  55/3/1  53/4/1 
f  54/1/1  56/2/1  57/3/1  55/4/1 
f  56/1/1  58/2/1  59/3/1  57/4/1 
f  58/1/1  60/2/1  61/3/1  59/4/1 
f  60/1/1  62/2/1  40/3/1  61/4/1 
f  62/1/1  63/2/1  41/3/1  40/4/1 
f  64/1/1  65/2/1  43/3/1  42/4/1 
f  66/1/1  67/2/1  56/3/1  54/4/1 
f  68/1/1  69/2/1  65/3/1  64/4/1 
f  70/1/1  71/2/1  72/3/1  73/4/1 
f  71/1/1  74/2/1  75/3/1  72/4/1 
f  74/1/1  76/2/1  77/3/1  75/4/1 
f  76/1/1  78/2/1  79/3/1  77/4/1 
f  78/1/1  80/2/1  66/3/1  79/4/1 
f  80/1/1  81/2/1  67/3/1  66/4/1 
f  82/1/1  83/2/1  69/3/1  68/4/1 
f  84/1/1  85/2/1  71/3/1  70/4/1 
f  86/1/1  87/2/1  83/3/1  82/4/1 
f  88/1/1  89/2/1  85/3/1  84/4/1 
f  90/1/1  91/2/1  87/3/1  86/4/1 
f  91/1/1  92/2/1  88/3/1  87/4/1 
f  92/1/1  93/2/1  89/3/1  88/4/1 
