# Wavefront OBJ file automatically generated by Tiled2Unity

# Vertices (Count = 112)
v 0 -40 0
v -40 -40 0
v -40 0 0
v 0 0 0
v -80 -40 0
v -80 0 0
v -120 -40 0
v -120 0 0
v -160 -40 0
v -160 0 0
v -200 -40 0
v -200 0 0
v -240 -40 0
v -240 0 0
v -280 -40 0
v -280 0 0
v -320 -40 0
v -320 0 0
v -360 -40 0
v -360 0 0
v 0 -80 0
v -40 -80 0
v -320 -80 0
v -360 -80 0
v 0 -120 0
v -40 -120 0
v -320 -120 0
v -360 -120 0
v 0 -160 0
v -40 -160 0
v -320 -160 0
v -360 -160 0
v 0 -200 0
v -40 -200 0
v -80 -200 0
v -80 -160 0
v -120 -200 0
v -120 -160 0
v -160 -200 0
v -160 -160 0
v -200 -200 0
v -200 -160 0
v -240 -200 0
v -280 -200 0
v -280 -160 0
v -240 -160 0
v -320 -200 0
v -360 -200 0
v -160 -240 0
v -200 -240 0
v -240 -240 0
v -280 -240 0
v -160 -280 0
v -200 -280 0
v -240 -280 0
v -280 -280 0
v -320 -280 0
v -320 -240 0
v -360 -280 0
v -360 -240 0
v -400 -280 0
v -400 -240 0
v -440 -280 0
v -440 -240 0
v -160 -320 0
v -200 -320 0
v -400 -320 0
v -440 -320 0
v -160 -360 0
v -200 -360 0
v -240 -360 0
v -280 -360 0
v -280 -320 0
v -240 -320 0
v -320 -360 0
v -320 -320 0
v -400 -360 0
v -440 -360 0
v -160 -400 0
v -200 -400 0
v -240 -400 0
v -280 -400 0
v -320 -400 0
v -400 -400 0
v -440 -400 0
v -160 -440 0
v -200 -440 0
v -240 -440 0
v -280 -440 0
v -320 -440 0
v -400 -440 0
v -440 -440 0
v -480 -440 0
v -480 -400 0
v -160 -480 0
v -200 -480 0
v -240 -480 0
v -280 -480 0
v -320 -480 0
v -440 -480 0
v -480 -480 0
v -160 -520 0
v -200 -520 0
v -240 -520 0
v -280 -520 0
v -320 -520 0
v -360 -520 0
v -360 -480 0
v -400 -520 0
v -400 -480 0
v -440 -520 0
v -480 -520 0

# Texture Coorindates (Count = 8)
vt 0.0001220703 0.0001220703
vt 0.9998779 0.0001220703
vt 0.9998779 0.9998779
vt 0.0001220703 0.9998779
vt 1.000122 0.0001220703
vt 0.9998779 1.000122
vt -0.0001220703 0.9998779
vt 0.0001220703 -0.0001220703

# Normal
vn 0 0 -1

# Groups (Count = 1)
g mesh_[00]_[03]
f  1/1/1  2/2/1  3/3/1  4/4/1 
f  2/1/1  5/2/1  6/3/1  3/4/1 
f  5/1/1  7/2/1  8/3/1  6/4/1 
f  7/1/1  9/2/1  10/3/1  8/4/1 
f  9/1/1  11/2/1  12/3/1  10/4/1 
f  11/1/1  13/2/1  14/3/1  12/4/1 
f  13/1/1  15/2/1  16/3/1  14/4/1 
f  15/1/1  17/2/1  18/3/1  16/4/1 
f  17/1/1  19/2/1  20/3/1  18/4/1 
f  21/1/1  22/2/1  2/3/1  1/4/1 
f  23/1/1  24/2/1  19/3/1  17/4/1 
f  25/1/1  26/2/1  22/3/1  21/4/1 
f  27/1/1  28/2/1  24/3/1  23/4/1 
f  29/1/1  30/2/1  26/3/1  25/4/1 
f  31/1/1  32/2/1  28/3/1  27/4/1 
f  33/1/1  34/2/1  30/3/1  29/4/1 
f  34/1/1  35/2/1  36/3/1  30/4/1 
f  35/1/1  37/2/1  38/3/1  36/4/1 
f  37/1/1  39/2/1  40/3/1  38/4/1 
f  39/1/1  41/2/1  42/3/1  40/4/1 
f  43/1/1  44/2/1  45/3/1  46/4/1 
f  44/1/1  47/2/1  31/3/1  45/4/1 
f  47/1/1  48/2/1  32/3/1  31/4/1 
f  49/1/1  50/2/1  41/3/1  39/4/1 
f  51/1/1  52/2/1  44/3/1  43/4/1 
f  53/1/1  54/2/1  50/3/1  49/4/1 
f  55/1/1  56/2/1  52/3/1  51/4/1 
f  56/1/1  57/2/1  58/3/1  52/4/1 
f  57/1/1  59/2/1  60/3/1  58/4/1 
f  59/1/1  61/2/1  62/3/1  60/4/1 
f  61/1/1  63/2/1  64/3/1  62/4/1 
f  65/1/1  66/2/1  54/3/1  53/4/1 
f  67/5/1  68/6/1  63/7/1  61/8/1 
f  69/1/1  70/2/1  66/3/1  65/4/1 
f  71/1/1  72/2/1  73/3/1  74/4/1 
f  72/1/1  75/2/1  76/3/1  73/4/1 
f  77/5/1  78/6/1  68/7/1  67/8/1 
f  79/1/1  80/2/1  70/3/1  69/4/1 
f  81/1/1  82/2/1  72/3/1  71/4/1 
f  82/1/1  83/2/1  75/3/1  72/4/1 
f  84/5/1  85/6/1  78/7/1  77/8/1 
f  86/1/1  87/2/1  80/3/1  79/4/1 
f  88/1/1  89/2/1  82/3/1  81/4/1 
f  89/1/1  90/2/1  83/3/1  82/4/1 
f  91/5/1  92/6/1  85/7/1  84/8/1 
f  92/5/1  93/6/1  94/7/1  85/8/1 
f  95/1/1  96/2/1  87/3/1  86/4/1 
f  97/1/1  98/2/1  89/3/1  88/4/1 
f  98/1/1  99/2/1  90/3/1  89/4/1 
f  100/5/1  101/6/1  93/7/1  92/8/1 
f  102/1/1  103/2/1  96/3/1  95/4/1 
f  103/1/1  104/2/1  97/3/1  96/4/1 
f  104/1/1  105/2/1  98/3/1  97/4/1 
f  105/1/1  106/2/1  99/3/1  98/4/1 
f  106/1/1  107/2/1  108/3/1  99/4/1 
f  107/1/1  109/2/1  110/3/1  108/4/1 
f  109/5/1  111/6/1  100/7/1  110/8/1 
f  111/5/1  112/6/1  101/7/1  100/8/1 
